<?xml version="1.0" standalone="no"?>
<!DOCTYPE svg PUBLIC "-//W3C//DTD SVG 20010904//EN"
 "http://www.w3.org/TR/2001/REC-SVG-20010904/DTD/svg10.dtd">
<svg version="1.0" xmlns="http://www.w3.org/2000/svg"
 width="624.000000pt" height="624.000000pt" viewBox="0 0 624.000000 624.000000"
 preserveAspectRatio="xMidYMid meet">
<metadata>
Created by potrace 1.11, written by Peter Selinger 2001-2013
</metadata>
<g transform="translate(0.000000,624.000000) scale(0.100000,-0.100000)"
fill="#000000" stroke="none">
<path d="M2806 6149 c-42 -23 -143 -119 -192 -183 -16 -21 -33 -44 -39 -50 -5
-6 -23 -31 -40 -56 -16 -25 -33 -47 -38 -48 -4 -2 -5 -8 -1 -13 3 -5 1 -9 -3
-9 -5 0 -22 -22 -38 -50 -16 -27 -33 -50 -37 -50 -4 0 -38 19 -75 42 -142 87
-482 233 -591 253 -51 9 -74 14 -92 20 -10 3 -34 7 -52 9 -18 2 -60 7 -93 11
-74 10 -229 10 -245 0 -8 -5 -9 -26 -5 -64 3 -31 8 -76 10 -101 3 -25 7 -58 9
-75 14 -90 21 -230 20 -395 -1 -146 -4 -197 -18 -240 -21 -65 -23 -72 -26 -85
-1 -5 -6 -16 -12 -22 -6 -7 -8 -13 -4 -13 3 0 -1 -17 -10 -37 -9 -21 -29 -74
-45 -118 -16 -44 -34 -89 -39 -100 -5 -11 -36 -83 -69 -160 -32 -77 -75 -174
-94 -215 -19 -41 -44 -97 -56 -123 -30 -66 -207 -439 -259 -547 -9 -19 -20
-36 -24 -38 -5 -2 -8 -8 -8 -14 0 -5 -25 -62 -55 -125 -30 -64 -55 -117 -55
-118 0 -2 -23 -52 -51 -112 -28 -59 -61 -133 -74 -163 -13 -30 -39 -90 -59
-133 -20 -42 -36 -79 -36 -82 0 -2 -11 -28 -24 -57 -85 -187 -220 -557 -260
-713 -22 -86 -27 -127 -16 -140 7 -8 9 -15 5 -15 -4 0 -3 -6 2 -12 6 -7 30
-49 53 -93 24 -44 58 -101 76 -126 61 -87 175 -191 259 -236 22 -11 56 -29 75
-40 45 -24 140 -62 168 -68 12 -2 26 -6 30 -9 11 -6 161 -48 187 -51 11 -2 45
-9 75 -17 45 -12 64 -13 95 -3 59 17 96 39 135 79 19 19 38 36 41 36 4 0 7
-15 7 -32 1 -87 31 -166 83 -216 62 -60 189 -78 268 -37 24 12 114 128 141
180 3 6 28 44 55 85 28 41 54 83 60 92 74 125 172 279 219 343 52 71 248 276
316 330 125 101 285 201 433 274 196 95 218 101 202 52 -3 -10 -7 -32 -9 -48
-9 -64 -56 -222 -89 -295 -31 -68 -107 -206 -129 -233 -4 -5 -33 -48 -64 -95
-57 -85 -234 -322 -263 -350 -28 -28 -209 -276 -264 -361 -69 -108 -168 -286
-173 -314 -1 -5 -11 -30 -22 -55 -42 -91 -90 -232 -107 -315 -3 -11 -10 -45
-17 -75 -19 -90 -24 -127 -33 -240 -4 -47 -8 -89 -9 -95 -1 -7 737 -11 2192
-13 l2192 -2 1 22 c1 24 4 61 13 144 28 267 29 1073 1 1369 -3 28 -7 73 -9
100 -6 64 -16 161 -21 200 -11 85 -17 132 -21 155 -2 14 -6 45 -9 70 -3 25
-10 65 -15 90 -5 25 -12 63 -15 85 -8 46 -13 70 -20 105 -4 14 -8 35 -11 48
-2 12 -6 33 -9 47 -3 14 -7 37 -10 53 -3 15 -8 35 -11 44 -3 10 -8 30 -10 45
-3 16 -12 48 -20 73 -8 25 -16 56 -18 70 -3 14 -5 25 -6 25 -1 0 -3 7 -5 15
-2 8 -20 67 -40 130 -20 63 -37 120 -39 125 -2 6 -6 17 -9 25 -3 8 -24 67 -47
130 -24 63 -52 135 -62 160 -11 25 -27 61 -35 80 -35 79 -129 269 -162 325
-20 33 -36 62 -36 65 0 3 -8 16 -16 30 -9 14 -40 63 -69 110 -270 430 -643
839 -950 1045 -41 28 -77 52 -80 55 -10 10 -109 63 -195 104 -136 65 -301 115
-439 134 -70 9 -282 9 -328 -1 -31 -6 -38 -5 -38 8 0 8 -9 41 -21 73 -11 31
-22 66 -24 76 -9 42 -89 244 -117 298 -17 32 -48 77 -69 100 -21 24 -42 48
-47 53 -62 70 -283 226 -320 225 -9 -1 -35 -10 -56 -21z m724 -1274 c58 -5
111 -13 147 -20 71 -15 120 -28 138 -35 11 -5 45 -19 75 -32 30 -12 77 -35
103 -50 26 -15 50 -28 53 -28 12 0 214 -143 214 -151 0 -5 5 -9 11 -9 6 0 16
-6 23 -12 8 -7 42 -38 77 -68 76 -66 241 -230 324 -324 33 -37 65 -73 70 -79
6 -7 38 -46 70 -87 33 -41 62 -77 65 -80 7 -7 61 -79 80 -106 86 -125 150
-224 150 -232 0 -6 4 -12 8 -14 34 -14 310 -598 328 -692 2 -12 8 -30 13 -41
19 -39 101 -324 115 -398 2 -15 7 -35 10 -45 5 -16 9 -32 26 -117 16 -76 18
-90 26 -140 4 -27 8 -52 9 -55 1 -5 16 -106 21 -145 1 -11 5 -45 8 -75 3 -30
8 -73 11 -95 14 -119 19 -270 19 -645 l1 -415 -25 -50 c-33 -67 -56 -92 -99
-106 -47 -16 -71 -17 -101 -4 -66 27 -101 77 -126 181 -20 85 -22 103 -29 439
-3 149 -7 290 -9 315 -2 25 -7 86 -10 137 -4 51 -9 107 -11 125 -2 18 -6 58
-9 88 -8 72 -15 126 -22 175 -4 22 -8 47 -9 55 -3 22 -16 103 -19 120 -2 8 -6
31 -10 50 -3 19 -8 44 -10 55 -1 11 -6 31 -9 45 -13 51 -49 206 -53 229 -3 13
-10 34 -16 45 -6 12 -11 23 -10 26 5 17 -97 321 -141 420 -11 25 -21 50 -22
55 -3 14 -118 249 -125 255 -3 3 -11 16 -17 30 -57 118 -225 360 -340 490 -67
76 -319 328 -371 370 -24 19 -53 43 -65 54 -87 73 -289 205 -397 258 -102 50
-235 92 -325 104 -63 8 -71 12 -100 54 -48 69 -21 151 54 165 14 3 37 10 51
15 14 5 50 7 80 4 30 -3 75 -7 100 -9z m-1513 -428 c154 -38 161 -176 18 -336
-197 -220 -399 -346 -572 -356 -89 -5 -132 23 -153 98 -27 96 -6 201 60 300
75 111 169 199 260 244 58 28 60 29 100 37 14 3 39 10 55 15 31 9 193 7 232
-2z m-1377 -2097 c30 -112 -5 -241 -85 -313 -40 -37 -114 -67 -179 -73 -60 -5
-65 -4 -77 18 -8 12 -14 52 -14 88 0 149 120 287 268 305 29 4 54 9 56 11 12
11 21 0 31 -36z"/>
</g>
</svg>
